<svg width="124" height="114" viewBox="0 0 124 114" fill="none" xmlns="http://www.w3.org/2000/svg">
<path d="M61.7148 48.2427H61.504V52.7439H61.9132C62.744 52.7439 63.3516 51.7643 63.3516 50.4995C63.3516 48.8007 62.3844 48.2427 61.7148 48.2427ZM62.4588 53.0539C62.2852 53.0539 62.0992 53.0663 61.9132 53.0663H61.504V57.1459C61.504 57.2699 61.5164 57.4187 61.5536 57.5303H62.2232C63.054 57.5303 63.6616 56.4515 63.6616 55.0503C63.674 53.6615 63.0416 53.1903 62.4588 53.0539ZM62.4588 53.0539C62.2852 53.0539 62.0992 53.0663 61.9132 53.0663H61.504V57.1459C61.504 57.2699 61.5164 57.4187 61.5536 57.5303H62.2232C63.054 57.5303 63.6616 56.4515 63.6616 55.0503C63.674 53.6615 63.0416 53.1903 62.4588 53.0539ZM63.3516 50.4995C63.3516 48.8131 62.372 48.2427 61.7024 48.2427H61.504V52.7439H61.9132C62.744 52.7315 63.3516 51.7643 63.3516 50.4995ZM84.7168 50.4871C84.6796 49.4083 84.7044 48.8503 84.6052 48.0195C83.6504 40.2819 76.9668 33.1519 71.0272 32.9287C68.262 32.8171 66.34 33.4867 66.34 33.4867C64.232 34.2059 63.7484 35.0987 62.2852 35.0367C60.7104 34.9499 60.2888 33.8711 58.404 33.0651C56.4076 32.1971 54.5476 32.4203 53.0224 32.5939C47.7152 33.2139 42.4452 38.0871 40.2752 43.9895C39.804 45.2667 39.4816 46.5811 39.3452 47.9203C39.246 48.8007 39.2956 49.3959 39.2832 50.6111C39.2584 52.2603 39.5436 58.0139 43.2388 66.0987C44.6648 69.2359 47.678 75.8203 52.1792 78.5855C54.5848 80.0611 57.4988 80.5075 57.8088 80.5447C58.8504 80.6935 59.6316 80.7927 60.5244 80.4455C61.5536 80.0363 61.8016 79.3915 62.5828 79.4287C63.2648 79.4535 63.4756 79.9619 64.1948 80.3215C64.294 80.3711 64.4056 80.4207 64.5296 80.4703C65.038 80.6439 65.6208 80.6935 66.7864 80.4579C67.2948 80.3463 69.9484 79.8255 72.0068 78.5111C76.8304 75.4359 80.7488 66.6071 81.2324 65.5159C84.6052 57.7659 84.7664 52.1363 84.7168 50.4871ZM59.1852 47.9575L59.148 47.8707H61.9876C63.6988 47.8707 65.4596 48.4783 65.4596 50.5119C65.4596 51.9255 64.8272 52.6075 63.6988 52.8927C64.8148 53.1283 65.7696 53.7111 65.7696 55.1247C65.7696 57.3195 64.4924 57.8651 62.2232 57.8651H59.148L59.1604 57.8279C59.2472 57.6543 59.2968 57.4063 59.2968 57.2079V48.5527C59.3092 48.3667 59.2596 48.1311 59.1852 47.9575ZM78.2936 68.8639C78.12 69.1739 77.9712 69.4343 77.8596 69.6203C77.8596 69.6203 77.4628 70.3147 76.7064 71.3315C76.694 70.1783 76.384 69.3599 75.8508 69.1367C74.6728 68.6407 72.7632 71.1579 72.5152 71.4679C72.044 72.1003 70.3204 74.3943 71.2504 76.2295C71.3248 76.3783 71.4116 76.5147 71.4984 76.6263C70.5684 77.3331 69.5392 77.9655 68.4356 78.4987C67.8032 78.8087 66.464 79.4411 65.3232 79.3915C64.9264 79.3791 64.542 79.2675 64.232 79.0443C63.6368 78.5979 63.4756 77.8663 63.4012 77.4943C62.7316 73.8611 62.6324 61.9943 62.6324 60.8783C62.6944 61.0147 63.8848 63.4327 66.4888 63.6931C66.5012 63.6931 66.526 63.6931 66.5632 63.6931C68.82 63.8419 70.7544 61.9199 71.114 61.5231C72.3292 60.1839 72.292 57.9023 71.6224 55.3851V55.3727C70.7296 52.0743 68.7208 48.3791 66.9848 45.9115C64.5916 42.5139 63.1904 42.1667 62.372 42.1543C62.0124 42.1419 61.2808 42.1915 60.1648 43.0347C59.4456 43.5679 58.5776 44.4235 57.5484 45.7875C53.9028 50.6235 50.6664 58.6711 53.4068 61.6099C55.5396 63.9039 57.9576 63.7799 57.9576 63.7799H57.9948C59.086 63.7551 60.5864 63.1971 62.31 60.8535C61.9504 66.7683 62.0496 70.4511 62.3844 72.8567C62.4836 73.6255 62.806 75.6219 61.7396 77.4447C61.5288 77.7919 61.0452 78.5979 60.1524 79.0815C58.218 80.1107 55.7504 78.8459 54.684 78.3003C53.9772 77.9407 53.3324 77.5191 52.7248 77.0603C52.9604 76.8619 53.196 76.5891 53.3696 76.2543C54.2996 74.4191 52.576 72.1375 52.1048 71.4927C51.8692 71.1703 49.9472 68.6655 48.7692 69.1615C48.236 69.3847 47.926 70.1907 47.9136 71.3191C47.5912 70.7487 47.3432 70.2527 47.1572 69.8807C43.4124 62.2423 39.4692 54.2195 41.2548 46.4571C41.3292 46.6679 41.3912 46.7919 41.3912 46.7919C41.6268 47.3375 42.2096 48.4163 43.3876 49.0735C45.7932 50.4251 48.546 48.8007 48.98 48.5279C51.4476 46.9903 53.0844 43.6051 52.2412 41.1251C52.1792 40.9267 52.0924 40.7407 51.9932 40.5547C51.2368 39.1287 49.6992 38.5211 49.2528 38.3351C47.9136 37.7895 46.6736 37.8515 45.9172 37.9755C46.9588 36.9587 48.2732 36.0287 49.8852 35.3839C53.7168 33.8587 59.148 33.9827 61.0824 36.7231C62.1612 38.2483 61.9132 40.2571 62.3348 40.2571C62.744 40.2571 62.4712 38.2483 63.5872 36.7231C66.154 33.2387 73.8544 35.2103 75.3548 36.0039C76.3964 36.5495 77.2644 37.2191 77.9836 37.9507C77.2148 37.8391 76.074 37.8267 74.8216 38.3351C74.3628 38.5211 72.8376 39.1411 72.0688 40.5547C70.7296 43.0595 72.4284 46.8663 75.0944 48.5155C75.5284 48.7883 78.2688 50.4127 80.6868 49.0611C81.6788 48.5031 82.2492 47.6599 82.5344 47.0771C84.8036 57.1335 79.3104 67.0163 78.2936 68.8639ZM62.2232 57.5303C63.054 57.5303 63.6616 56.4515 63.6616 55.0503C63.6616 53.6491 63.0416 53.1779 62.4588 53.0415C62.2852 53.0415 62.0992 53.0539 61.9132 53.0539H61.504V57.1335C61.504 57.2575 61.5164 57.4063 61.5536 57.5179H62.2232V57.5303ZM63.3516 50.4995C63.3516 48.8131 62.372 48.2427 61.7024 48.2427H61.504V52.7439H61.9132C62.744 52.7315 63.3516 51.7643 63.3516 50.4995Z" fill="#262522"/>
<path d="M73.7924 31.1431C72.9244 32.1351 71.2876 30.7587 68.0884 31.1927C64.976 31.6143 64.8272 33.1519 62.2232 33.2015C59.7184 33.2511 59.5572 31.8375 56.358 31.3663C52.8612 30.8579 51.2492 32.3087 50.1332 31.1803C49.0916 30.1387 49.4884 27.9315 50.22 26.5799C51.1872 24.7819 52.9728 24.1247 54.7212 23.4799C57.102 22.6119 59.0612 22.5747 62.0496 22.5623C64.8024 22.5499 66.1912 22.5375 67.9148 23.1079C69.0804 23.4923 71.6348 24.3479 73.0856 26.7783C73.7056 27.8571 74.6852 30.1387 73.7924 31.1431Z" fill="#262522"/>
<path d="M27.8876 56.6624C27.4164 56.4764 26.1516 55.9556 25.5564 54.6412C24.8496 53.0788 25.5068 51.3304 25.73 51.3304C25.8664 51.3304 25.8168 52.0248 26.35 53.0292C26.6228 53.5376 26.8832 54.0212 27.3048 54.232C28.1852 54.6536 29.0532 53.5128 30.3676 53.0912C33.17 52.1736 35.8112 55.1372 36.58 54.356C37.0636 53.86 36.0344 52.6076 35.588 49.1976C35.5508 48.962 35.5756 47.9204 35.7988 46.6556C35.9352 45.8744 36.3196 45.49 36.6916 45.2172C36.9148 45.056 37.3364 44.7336 37.5968 44.8576C38.1176 45.1056 37.4604 46.8788 37.1504 49.7928C36.828 52.8184 37.2744 53.3268 36.5924 54.356C35.7864 55.5712 34.4224 55.9556 32.6988 56.464C31.2976 56.8856 29.6484 57.3692 27.8876 56.6624Z" fill="#262522"/>
<path d="M48.8436 31.416C48.6948 31.5772 48.5708 31.4779 47.9508 31.6639C47.0208 31.9367 46.8596 32.2964 46.4876 32.2592C45.8552 32.1848 45.3096 31.0192 45.26 30.1016C45.1484 27.7456 48.3104 26.146 48.4468 26.0716C46.066 25.774 44.33 25.1044 43.1768 24.5588C41.1432 23.5916 40.424 22.6988 38.3656 22.364C36.9892 22.1408 35.3524 22.2151 35.3524 22.0911C35.3524 22.0167 35.8608 22.054 36.4064 21.6696C36.5552 21.5704 36.9024 21.31 37.0388 20.8636C37.138 20.5536 37.076 20.2808 37.0388 20.1072C36.7784 18.9416 36.1584 17.9124 36.208 17.8752C36.27 17.8256 37.1008 19.6236 38.7748 20.7024C40.0272 21.5084 40.3 20.9876 42.346 21.806C43.7224 22.3516 43.2264 22.4384 46.9712 24.7324C47.7028 25.1912 48.1864 25.464 48.4344 26.0592C48.8064 26.9272 48.236 27.3488 48.3476 28.7128C48.484 30.1884 49.2528 30.982 48.8436 31.416Z" fill="#262522"/>
<path d="M74.9456 31.416C75.0944 31.5772 75.2184 31.4779 75.8384 31.6639C76.7684 31.9367 76.9296 32.2964 77.3016 32.2592C77.934 32.1848 78.4796 31.0192 78.5292 30.1016C78.6408 27.7456 75.4788 26.146 75.3424 26.0716C77.7232 25.774 79.4592 25.1044 80.6124 24.5588C82.646 23.5916 83.3652 22.6988 85.4236 22.364C86.8 22.1408 88.4368 22.2151 88.4368 22.0911C88.4368 22.0167 87.9284 22.054 87.3828 21.6696C87.234 21.5704 86.8868 21.31 86.7504 20.8636C86.6512 20.5536 86.7132 20.2808 86.7504 20.1072C87.0108 18.9416 87.6308 17.9124 87.5812 17.8752C87.5192 17.8256 86.6884 19.6236 85.0144 20.7024C83.762 21.5084 83.4892 20.9876 81.4432 21.806C80.0668 22.3516 80.5628 22.4384 76.818 24.7324C76.0864 25.1912 75.6028 25.464 75.3548 26.0592C74.9828 26.9272 75.5532 27.3488 75.4416 28.7128C75.3052 30.1884 74.5488 30.982 74.9456 31.416Z" fill="#262522"/>
<path d="M59.6564 21.744C59.6316 21.9796 57.412 22.5376 55.5396 21.4216C54.2624 20.6652 53.3448 19.2516 53.3572 17.8752C53.3572 17.4536 53.4564 16.908 53.6548 16.8832C53.9772 16.8336 54.064 18.2968 55.242 19.1152C55.7628 19.4748 56.0232 19.388 56.8044 19.9336C57.3376 20.318 57.3376 20.4544 57.8088 20.8016C58.8256 21.5704 59.6688 21.5828 59.6564 21.744Z" fill="#262522"/>
<path d="M51.9064 19.6732C51.7452 19.7228 51.9312 20.8884 52.5264 22.0044C52.8364 22.5872 53.1092 23.0956 53.4812 23.0956C54.064 23.0832 54.6468 21.7936 54.3368 21.4092C54.1756 21.2108 53.878 21.4092 53.4068 21.2728C52.3776 20.9876 52.08 19.6112 51.9064 19.6732Z" fill="#262522"/>
<path d="M64.5916 21.7068C64.6164 21.9424 66.836 22.5004 68.7084 21.3844C69.9856 20.628 70.9032 19.2144 70.8908 17.838C70.8908 17.4164 70.7916 16.8708 70.5932 16.846C70.2708 16.7964 70.184 18.2596 69.006 19.078C68.4852 19.4376 68.2248 19.3508 67.4436 19.8964C66.9104 20.2808 66.9104 20.4172 66.4392 20.7644C65.4224 21.5456 64.5792 21.558 64.5916 21.7068Z" fill="#262522"/>
<path d="M72.3416 19.6359C72.5028 19.6855 72.3168 20.8511 71.7216 21.9671C71.4116 22.5499 71.1388 23.0583 70.7668 23.0583C70.184 23.0459 69.6012 21.7563 69.9112 21.3719C70.0724 21.1735 70.37 21.3719 70.8412 21.2355C71.8704 20.9503 72.168 19.5739 72.3416 19.6359Z" fill="#262522"/>
<path d="M47.864 76.9363C47.7028 77.2835 46.8968 76.9239 45.6196 77.1223C43.214 77.4819 43.09 78.5235 40.7216 79.9247C38.5764 81.1895 38.2912 81.0283 37.9688 81.6607C37.2 83.1983 37.9936 84.1159 37.4604 86.0131C37.324 86.5215 37.1256 86.9059 37.2744 87.0175C37.324 87.0547 37.448 87.0919 38.564 86.4099C39.1096 86.0751 39.3824 85.9139 39.5436 85.7403C40.052 85.1947 40.176 84.5375 40.2008 84.3515C40.3868 83.2355 39.7544 82.7395 40.0644 82.1939C40.3248 81.7475 40.8704 81.8467 41.5028 81.6111C43.1024 81.0035 44.1812 78.5483 43.8216 76.6015C43.5364 75.0887 42.408 73.9603 42.098 73.6627C42.0112 73.5759 41.2176 72.7947 40.3496 71.8895C40.2008 71.7407 39.9652 71.4927 39.7172 71.1207C39.3824 70.6371 39.184 70.1907 39.0724 69.9179C38.812 69.2607 38.7252 68.6655 38.688 68.2315C38.6756 68.0331 38.6632 67.2767 38.9856 66.3467C39.1964 65.7391 39.8784 64.1271 40.4984 64.1891C41.0316 64.2511 41.0564 65.5283 41.6516 67.4503C42.0484 68.7151 43.1644 71.8275 45.4956 74.3199C46.81 75.7707 48.0748 76.4899 47.864 76.9363Z" fill="#262522"/>
<path d="M96.1124 56.7615C96.5836 56.5755 97.8484 56.0547 98.4436 54.7403C99.1504 53.1779 98.4932 51.4295 98.27 51.4295C98.1336 51.4295 98.1832 52.1239 97.65 53.1283C97.3772 53.6367 97.1168 54.1203 96.6952 54.3311C95.8148 54.7527 94.9468 53.6119 93.6324 53.1903C90.83 52.2727 88.1888 55.2363 87.42 54.4551C86.9364 53.9591 87.9656 52.7067 88.412 49.2967C88.4492 49.0611 88.4244 48.0195 88.2012 46.7547C88.0648 45.9735 87.6804 45.5891 87.3084 45.3163C87.0852 45.1551 86.6636 44.8327 86.4032 44.9567C85.8824 45.2047 86.5396 46.9779 86.8496 49.8919C87.172 52.9175 86.7256 53.4259 87.4076 54.4551C88.2136 55.6703 89.5776 56.0547 91.3012 56.5631C92.7024 56.9847 94.3516 57.4683 96.1124 56.7615Z" fill="#262522"/>
<path d="M76.136 77.0356C76.2972 77.3828 77.1032 77.0232 78.3804 77.2216C80.786 77.5812 80.91 78.6228 83.2784 80.024C85.4236 81.2888 85.7088 81.1276 86.0312 81.76C86.8 83.2976 86.0064 84.2152 86.5396 86.1124C86.676 86.6208 86.8744 87.0052 86.7256 87.1168C86.552 87.2532 86.056 86.9308 85.436 86.5092C84.7912 86.0752 84.4068 85.8148 84.1092 85.294C83.8984 84.922 83.824 84.5872 83.7992 84.4632C83.5884 83.3844 84.2084 82.8388 83.9356 82.3056C83.7124 81.8592 83.1296 81.9708 82.4972 81.7228C80.8976 81.1152 79.8188 78.66 80.1784 76.7132C80.414 75.4112 81.2696 74.4688 81.902 73.7744C82.522 73.0924 82.8196 72.9808 83.6504 72.0012C84.5308 70.9596 84.816 70.3272 84.9276 70.0296C85.0516 69.7196 85.2748 69.1368 85.312 68.3432C85.3244 68.1324 85.3368 67.3884 85.0144 66.4584C84.8036 65.8508 84.1216 64.2388 83.5016 64.3008C82.9684 64.3628 82.9436 65.64 82.3484 67.562C81.964 68.8268 80.8356 71.9392 78.5044 74.4316C77.19 75.87 75.9252 76.5892 76.136 77.0356Z" fill="#262522"/>
<path d="M48.794 58.5595C48.5336 58.4603 48.1616 58.5099 48.0004 58.7207C47.616 59.1919 48.3228 60.3575 48.236 60.3947C48.1492 60.4319 47.6656 59.1795 47.1324 59.2167C46.9092 59.2291 46.7232 59.4647 46.6488 59.6755C46.5496 59.9359 46.4752 60.5683 48.1368 62.2051C49.91 63.9411 52.1172 65.2927 52.328 65.0323C52.5264 64.7719 50.22 63.6683 49.6124 61.1139C49.3272 59.9979 49.4512 58.8199 48.794 58.5595Z" fill="#262522"/>
<path d="M75.1688 58.6463C75.4292 58.5471 75.8012 58.5967 75.9624 58.8075C76.3468 59.2787 75.64 60.4443 75.7268 60.4815C75.8136 60.5187 76.2972 59.2663 76.8304 59.3035C77.0536 59.3159 77.2396 59.5515 77.314 59.7623C77.4132 60.0227 77.4876 60.6551 75.826 62.2919C74.0528 64.0279 71.8456 65.3795 71.6348 65.1191C71.4364 64.8587 73.7428 63.7551 74.3504 61.2007C74.6356 60.0847 74.524 58.9067 75.1688 58.6463Z" fill="#262522"/>
</svg>
