<svg xmlns="http://www.w3.org/2000/svg" viewBox="0 0 142 142">
  <rect width="142" height="142" fill="#ffffff"/>
  <g transform="translate(71,71) rotate(45) scale(2.2) translate(-50,-50)">
    <style>.st0{fill:#67112A;}</style>
    <g>
      <path class="st0" d="M49.77,46.97H49.6v3.63h0.33c0.67,0,1.16-0.79,1.16-1.81C51.09,47.42,50.31,46.97,49.77,46.97z M50.37,50.85
        c-0.14,0-0.29,0.01-0.44,0.01H49.6v3.29c0,0.1,0.01,0.22,0.04,0.31h0.54c0.67,0,1.16-0.87,1.16-2
        C51.35,51.34,50.84,50.96,50.37,50.85z M50.37,50.85c-0.14,0-0.29,0.01-0.44,0.01H49.6v3.29c0,0.1,0.01,0.22,0.04,0.31h0.54
        c0.67,0,1.16-0.87,1.16-2C51.35,51.34,50.84,50.96,50.37,50.85z M51.09,48.79c0-1.36-0.79-1.82-1.33-1.82H49.6v3.63h0.33
        C50.6,50.59,51.09,49.81,51.09,48.79z M68.32,48.78c-0.03-0.87-0.01-1.32-0.09-1.99c-0.77-6.24-6.16-11.99-10.95-12.17
        c-2.23-0.09-3.78,0.45-3.78,0.45c-1.7,0.58-2.09,1.3-3.27,1.25c-1.27-0.07-1.61-0.94-3.13-1.59c-1.61-0.7-3.11-0.52-4.34-0.38
        c-4.28,0.5-8.53,4.43-10.28,9.19c-0.38,1.03-0.64,2.09-0.75,3.17c-0.08,0.71-0.04,1.19-0.05,2.17c-0.02,1.33,0.21,5.97,3.19,12.49
        c1.15,2.53,3.58,7.84,7.21,10.07c1.94,1.19,4.29,1.55,4.54,1.58c0.84,0.12,1.47,0.2,2.19-0.08c0.83-0.33,1.03-0.85,1.66-0.82
        c0.55,0.02,0.72,0.43,1.3,0.72c0.08,0.04,0.17,0.08,0.27,0.12c0.41,0.14,0.88,0.18,1.82-0.01c0.41-0.09,2.55-0.51,4.21-1.57
        c3.89-2.48,7.05-9.6,7.44-10.48C68.23,54.65,68.36,50.11,68.32,48.78z M47.73,46.74l-0.03-0.07h2.29c1.38,0,2.8,0.49,2.8,2.13
        c0,1.14-0.51,1.69-1.42,1.92c0.9,0.19,1.67,0.66,1.67,1.8c0,1.77-1.03,2.21-2.86,2.21h-2.48l0.01-0.03
        c0.07-0.14,0.11-0.34,0.11-0.5v-6.98C47.83,47.07,47.79,46.88,47.73,46.74z M63.14,63.6c-0.14,0.25-0.26,0.46-0.35,0.61
        c0,0-0.32,0.56-0.93,1.38c-0.01-0.93-0.26-1.59-0.69-1.77c-0.95-0.4-2.49,1.63-2.69,1.88c-0.38,0.51-1.77,2.36-1.02,3.84
        c0.06,0.12,0.13,0.23,0.2,0.32c-0.75,0.57-1.58,1.08-2.47,1.51c-0.51,0.25-1.59,0.76-2.51,0.72c-0.32-0.01-0.63-0.1-0.88-0.28
        c-0.48-0.36-0.61-0.95-0.67-1.25c-0.54-2.93-0.62-12.5-0.62-13.4c0.05,0.11,1.01,2.06,3.11,2.27c0.01,0,0.03,0,0.06,0
        c1.82,0.12,3.38-1.43,3.67-1.75c0.98-1.08,0.95-2.92,0.41-4.95c0,0,0-0.01,0-0.01c-0.72-2.66-2.34-5.64-3.74-7.63
        c-1.93-2.74-3.06-3.02-3.72-3.03c-0.29-0.01-0.88,0.03-1.78,0.71c-0.58,0.43-1.28,1.12-2.11,2.22c-2.94,3.9-5.55,10.39-3.34,12.76
        c1.72,1.85,3.67,1.75,3.67,1.75h0.03c0.88-0.02,2.09-0.47,3.48-2.36c-0.29,4.77-0.21,7.74,0.06,9.68c0.08,0.62,0.34,2.23-0.52,3.7
        c-0.17,0.28-0.56,0.93-1.28,1.32c-1.56,0.83-3.55-0.19-4.41-0.63c-0.57-0.29-1.09-0.63-1.58-1c0.19-0.16,0.38-0.38,0.52-0.65
        c0.75-1.48-0.64-3.32-1.02-3.84c-0.19-0.26-1.74-2.28-2.69-1.88c-0.43,0.18-0.68,0.83-0.69,1.74c-0.26-0.46-0.46-0.86-0.61-1.16
        c-3.02-6.16-6.2-12.63-4.76-18.89c0.06,0.17,0.11,0.27,0.11,0.27c0.19,0.44,0.66,1.31,1.61,1.84c1.94,1.09,4.16-0.22,4.51-0.44
        c1.99-1.24,3.31-3.97,2.63-5.97c-0.05-0.16-0.12-0.31-0.2-0.46c-0.61-1.15-1.85-1.64-2.21-1.79c-1.08-0.44-2.08-0.39-2.69-0.29
        c0.84-0.82,1.9-1.57,3.2-2.09c3.09-1.23,7.47-1.13,9.03,1.08c0.87,1.23,0.67,2.85,1.01,2.85c0.33,0,0.11-1.62,1.01-2.85
        c2.07-2.81,8.28-1.22,9.49-0.58c0.84,0.44,1.54,0.98,2.12,1.57c-0.62-0.09-1.54-0.1-2.55,0.31c-0.37,0.15-1.6,0.65-2.22,1.79
        c-1.08,2.02,0.29,5.09,2.44,6.42c0.35,0.22,2.56,1.53,4.51,0.44c0.8-0.45,1.26-1.13,1.49-1.6C68.39,54.14,63.96,62.11,63.14,63.6z
        M50.18,54.46c0.67,0,1.16-0.87,1.16-2c0-1.13-0.5-1.51-0.97-1.62c-0.14,0-0.29,0.01-0.44,0.01H49.6v3.29
        c0,0.1,0.01,0.22,0.04,0.31H50.18z M51.09,48.79c0-1.36-0.79-1.82-1.33-1.82H49.6v3.63h0.33C50.6,50.59,51.09,49.81,51.09,48.79z"/>
      <path class="st0" d="M59.51,33.18c-0.7,0.8-2.02-0.31-4.6,0.04c-2.51,0.34-2.63,1.58-4.73,1.62c-2.02,0.04-2.15-1.1-4.73-1.48
        c-2.82-0.41-4.12,0.76-5.02-0.15c-0.84-0.84-0.52-2.62,0.07-3.71c0.78-1.45,2.22-1.98,3.63-2.5c1.92-0.7,3.5-0.73,5.91-0.74
        c2.22-0.01,3.34-0.02,4.73,0.44c0.94,0.31,3,1,4.17,2.96C59.44,30.53,60.23,32.37,59.51,33.18z"/>
      <path class="st0" d="M22.49,53.76c-0.38-0.15-1.4-0.57-1.88-1.63c-0.57-1.26-0.04-2.67,0.14-2.67c0.11,0,0.07,0.56,0.5,1.37
        c0.22,0.41,0.43,0.8,0.77,0.97c0.71,0.34,1.41-0.58,2.47-0.92c2.26-0.74,4.39,1.65,5.01,1.02c0.39-0.4-0.44-1.41-0.8-4.16
        c-0.03-0.19-0.01-1.03,0.17-2.05c0.11-0.63,0.42-0.94,0.72-1.16c0.18-0.13,0.52-0.39,0.73-0.29c0.42,0.2-0.11,1.63-0.36,3.98
        c-0.26,2.44,0.1,2.85-0.45,3.68c-0.65,0.98-1.75,1.29-3.14,1.7C25.24,53.94,23.91,54.33,22.49,53.76z"/>
      <path class="st0" d="M39.39,33.4c-0.12,0.13-0.22,0.05-0.72,0.2c-0.75,0.22-0.88,0.51-1.18,0.48c-0.51-0.06-0.95-1-0.99-1.74
        c-0.09-1.9,2.46-3.19,2.57-3.25c-1.92-0.24-3.32-0.78-4.25-1.22c-1.64-0.78-2.22-1.5-3.88-1.77c-1.11-0.18-2.43-0.12-2.43-0.22
        c0-0.06,0.41-0.03,0.85-0.34c0.12-0.08,0.4-0.29,0.51-0.65c0.08-0.25,0.03-0.47,0-0.61c-0.21-0.94-0.71-1.77-0.67-1.8
        c0.05-0.04,0.72,1.41,2.07,2.28c1.01,0.65,1.23,0.23,2.88,0.89c1.11,0.44,0.71,0.51,3.73,2.36c0.59,0.37,0.98,0.59,1.18,1.07
        c0.3,0.7-0.16,1.04-0.07,2.14C39.1,32.41,39.72,33.05,39.39,33.4z"/>
      <path class="st0" d="M60.44,33.4c0.12,0.13,0.22,0.05,0.72,0.2c0.75,0.22,0.88,0.51,1.18,0.48c0.51-0.06,0.95-1,0.99-1.74
        c0.09-1.9-2.46-3.19-2.57-3.25c1.92-0.24,3.32-0.78,4.25-1.22c1.64-0.78,2.22-1.5,3.88-1.77c1.11-0.18,2.43-0.12,2.43-0.22
        c0-0.06-0.41-0.03-0.85-0.34c-0.12-0.08-0.4-0.29-0.51-0.65c-0.08-0.25-0.03-0.47,0-0.61c0.21-0.94,0.71-1.77,0.67-1.8
        c-0.05-0.04-0.72,1.41-2.07,2.28c-1.01,0.65-1.23,0.23-2.88,0.89c-1.11,0.44-0.71,0.51-3.73,2.36c-0.59,0.37-0.98,0.59-1.18,1.07
        c-0.3,0.7,0.16,1.04,0.07,2.14C60.73,32.41,60.12,33.05,60.44,33.4z"/>
      <path class="st0" d="M48.11,25.6c-0.02,0.19-1.81,0.64-3.32-0.26c-1.03-0.61-1.77-1.75-1.76-2.86c0-0.34,0.08-0.78,0.24-0.8
        c0.26-0.04,0.33,1.14,1.28,1.8c0.42,0.29,0.63,0.22,1.26,0.66c0.43,0.31,0.43,0.42,0.81,0.7C47.44,25.46,48.12,25.47,48.11,25.6z"/>
      <path class="st0" d="M41.86,23.93c-0.13,0.04,0.02,0.98,0.5,1.88c0.25,0.47,0.47,0.88,0.77,0.88c0.47-0.01,0.94-1.05,0.69-1.36
        c-0.13-0.16-0.37,0-0.75-0.11C42.24,24.99,42,23.88,41.86,23.93z"/>
      <path class="st0" d="M52.09,25.57c0.02,0.19,1.81,0.64,3.32-0.26c1.03-0.61,1.77-1.75,1.76-2.86c0-0.34-0.08-0.78-0.24-0.8
        c-0.26-0.04-0.33,1.14-1.28,1.8c-0.42,0.29-0.63,0.22-1.26,0.66c-0.43,0.31-0.43,0.42-0.81,0.7
        C52.76,25.44,52.08,25.45,52.09,25.57z"/>
      <path class="st0" d="M58.34,23.9c0.13,0.04-0.02,0.98-0.5,1.88c-0.25,0.47-0.47,0.88-0.77,0.88c-0.47-0.01-0.94-1.05-0.69-1.36
        c0.13-0.16,0.37,0,0.75-0.11C57.96,24.96,58.2,23.85,58.34,23.9z"/>
      <path class="st0" d="M38.6,70.11c-0.13,0.28-0.78-0.01-1.81,0.15c-1.94,0.29-2.04,1.13-3.95,2.26c-1.73,1.02-1.96,0.89-2.22,1.4
        c-0.62,1.24,0.02,1.98-0.41,3.51c-0.11,0.41-0.27,0.72-0.15,0.81c0.04,0.03,0.14,0.06,1.04-0.49c0.44-0.27,0.66-0.4,0.79-0.54
        c0.41-0.44,0.51-0.97,0.53-1.12c0.15-0.9-0.36-1.3-0.11-1.74c0.21-0.36,0.65-0.28,1.16-0.47c1.29-0.49,2.16-2.47,1.87-4.04
        c-0.23-1.22-1.14-2.13-1.39-2.37c-0.07-0.07-0.71-0.7-1.41-1.43c-0.12-0.12-0.31-0.32-0.51-0.62c-0.27-0.39-0.43-0.75-0.52-0.97
        c-0.21-0.53-0.28-1.01-0.31-1.36c-0.01-0.16-0.02-0.77,0.24-1.52c0.17-0.49,0.72-1.79,1.22-1.74c0.43,0.05,0.45,1.08,0.93,2.63
        c0.32,1.02,1.22,3.53,3.1,5.54C37.75,69.17,38.77,69.75,38.6,70.11z"/>
      <path class="st0" d="M77.51,53.84c0.38-0.15,1.4-0.57,1.88-1.63c0.57-1.26,0.04-2.67-0.14-2.67c-0.11,0-0.07,0.56-0.5,1.37
        c-0.22,0.41-0.43,0.8-0.77,0.97c-0.71,0.34-1.41-0.58-2.47-0.92c-2.26-0.74-4.39,1.65-5.01,1.02c-0.39-0.4,0.44-1.41,0.8-4.16
        c0.03-0.19,0.01-1.03-0.17-2.05c-0.11-0.63-0.42-0.94-0.72-1.16c-0.18-0.13-0.52-0.39-0.73-0.29c-0.42,0.2,0.11,1.63,0.36,3.98
        c0.26,2.44-0.1,2.85,0.45,3.68c0.65,0.98,1.75,1.29,3.14,1.7C74.76,54.02,76.09,54.41,77.51,53.84z"/>
      <path class="st0" d="M61.4,70.19c0.13,0.28,0.78-0.01,1.81,0.15c1.94,0.29,2.04,1.13,3.95,2.26c1.73,1.02,1.96,0.89,2.22,1.4
        c0.62,1.24-0.02,1.98,0.41,3.51c0.11,0.41,0.27,0.72,0.15,0.81c-0.14,0.11-0.54-0.15-1.04-0.49c-0.52-0.35-0.83-0.56-1.07-0.98
        c-0.17-0.3-0.23-0.57-0.25-0.67c-0.17-0.87,0.33-1.31,0.11-1.74c-0.18-0.36-0.65-0.27-1.16-0.47c-1.29-0.49-2.16-2.47-1.87-4.04
        c0.19-1.05,0.88-1.81,1.39-2.37c0.5-0.55,0.74-0.64,1.41-1.43c0.71-0.84,0.94-1.35,1.03-1.59c0.1-0.25,0.28-0.72,0.31-1.36
        c0.01-0.17,0.02-0.77-0.24-1.52c-0.17-0.49-0.72-1.79-1.22-1.74c-0.43,0.05-0.45,1.08-0.93,2.63c-0.31,1.02-1.22,3.53-3.1,5.54
        C62.25,69.25,61.23,69.83,61.4,70.19z"/>
      <path class="st0" d="M39.35,55.29c-0.21-0.08-0.51-0.04-0.64,0.13c-0.31,0.38,0.26,1.32,0.19,1.35c-0.07,0.03-0.46-0.98-0.89-0.95
        c-0.18,0.01-0.33,0.2-0.39,0.37c-0.08,0.21-0.14,0.72,1.2,2.04c1.43,1.4,3.21,2.49,3.38,2.28c0.16-0.21-1.7-1.1-2.19-3.16
        C39.78,56.45,39.88,55.5,39.35,55.29z"/>
      <path class="st0" d="M60.62,55.36c0.21-0.08,0.51-0.04,0.64,0.13c0.31,0.38-0.26,1.32-0.19,1.35c0.07,0.03,0.46-0.98,0.89-0.95
        c0.18,0.01,0.33,0.2,0.39,0.37c0.08,0.21,0.14,0.72-1.2,2.04c-1.43,1.4-3.21,2.49-3.38,2.28c-0.16-0.21,1.7-1.1,2.19-3.16
        C60.19,56.52,60.1,55.57,60.62,55.36z"/>
    </g>
  </g>
</svg>
